<svg width="56" height="56" viewBox="0 0 56 56" fill="none" xmlns="http://www.w3.org/2000/svg">
<g id="pepicons-pencil:arrow-down-circle-filled" clip-path="url(#clip0_125_276)">
<g id="Group">
<g id="Mask group">
<mask id="mask0_125_276" style="mask-type:luminance" maskUnits="userSpaceOnUse" x="0" y="0" width="56" height="56">
<g id="Group_2">
<path id="Vector" d="M56 0L56 56L-3.8147e-06 56L-3.8147e-06 0L56 0Z" fill="white"/>
<g id="Group_3">
<path id="Vector_2" fill-rule="evenodd" clip-rule="evenodd" d="M25.0991 37.4424C24.8797 37.6251 24.5967 37.7132 24.3124 37.6874C24.028 37.6615 23.7656 37.5238 23.5828 37.3046L16.404 28.6892C16.2292 28.4689 16.1476 28.1891 16.1764 27.9094C16.2052 27.6298 16.3422 27.3725 16.5582 27.1925C16.7742 27.0125 17.052 26.9241 17.3322 26.9462C17.6125 26.9683 17.873 27.0991 18.0581 27.3107L25.2369 35.9261C25.4196 36.1455 25.5078 36.4284 25.4819 36.7128C25.4561 36.9971 25.3184 37.2596 25.0991 37.4424Z" fill="black"/>
<path id="Vector_3" fill-rule="evenodd" clip-rule="evenodd" d="M25.0991 18.5575C25.3184 18.7404 25.4561 19.0028 25.4819 19.2871C25.5078 19.5715 25.4196 19.8544 25.2369 20.0738L18.0581 28.6892C17.873 28.9008 17.6125 29.0316 17.3322 29.0537C17.052 29.0758 16.7742 28.9874 16.5582 28.8074C16.3422 28.6275 16.2052 28.3701 16.1764 28.0905C16.1476 27.8108 16.2292 27.531 16.404 27.3107L23.5828 18.6954C23.7656 18.4761 24.028 18.3384 24.3124 18.3125C24.5967 18.2867 24.8797 18.3748 25.0991 18.5575Z" fill="black"/>
<path id="Vector_4" fill-rule="evenodd" clip-rule="evenodd" d="M17.2303 28C17.2303 27.7144 17.3438 27.4405 17.5457 27.2385C17.7477 27.0366 18.0216 26.9231 18.3072 26.9231H38.7688C39.0544 26.9231 39.3283 27.0366 39.5303 27.2385C39.7322 27.4405 39.8457 27.7144 39.8457 28C39.8457 28.2856 39.7322 28.5596 39.5303 28.7615C39.3283 28.9635 39.0544 29.0769 38.7688 29.0769H18.3072C18.0216 29.0769 17.7477 28.9635 17.5457 28.7615C17.3438 28.5596 17.2303 28.2856 17.2303 28Z" fill="black"/>
</g>
</g>
</mask>
<g mask="url(#mask0_125_276)">
<path id="Vector_5" d="M-3.8147e-06 28C-3.8147e-06 43.464 12.536 56 28 56C43.464 56 56 43.464 56 28C56 12.536 43.464 0 28 0C12.536 0 -3.8147e-06 12.536 -3.8147e-06 28Z" fill="white"/>
</g>
</g>
</g>
</g>
<defs>
<clipPath id="clip0_125_276">
<rect width="56" height="56" fill="white" transform="matrix(0 1 -1 0 56 0)"/>
</clipPath>
</defs>
</svg>
