<svg width="56" height="56" viewBox="0 0 56 56" fill="none" xmlns="http://www.w3.org/2000/svg">
<g id="pepicons-pencil:arrow-down-circle-filled" clip-path="url(#clip0_120_1077)">
<g id="Group">
<g id="Mask group">
<mask id="mask0_120_1077" style="mask-type:luminance" maskUnits="userSpaceOnUse" x="0" y="0" width="56" height="56">
<g id="Group_2">
<path id="Vector" d="M0 56L0 -3.8147e-06H56V56H0Z" fill="white"/>
<g id="Group_3">
<path id="Vector_2" fill-rule="evenodd" clip-rule="evenodd" d="M30.9009 18.5575C31.1203 18.3748 31.4033 18.2867 31.6876 18.3126C31.972 18.3384 32.2344 18.4761 32.4172 18.6954L39.596 27.3108C39.7708 27.531 39.8524 27.8108 39.8236 28.0905C39.7948 28.3702 39.6578 28.6275 39.4418 28.8075C39.2258 28.9874 38.948 29.0758 38.6678 29.0537C38.3875 29.0316 38.127 28.9008 37.9419 28.6892L30.7631 20.0738C30.5804 19.8545 30.4922 19.5715 30.5181 19.2872C30.5439 19.0028 30.6816 18.7404 30.9009 18.5575Z" fill="black"/>
<path id="Vector_3" fill-rule="evenodd" clip-rule="evenodd" d="M30.9009 37.4425C30.6816 37.2596 30.5439 36.9972 30.5181 36.7129C30.4922 36.4285 30.5804 36.1456 30.7631 35.9262L37.9419 27.3108C38.127 27.0992 38.3875 26.9684 38.6678 26.9463C38.948 26.9242 39.2258 27.0126 39.4418 27.1926C39.6578 27.3725 39.7948 27.6299 39.8236 27.9095C39.8524 28.1892 39.7708 28.469 39.596 28.6893L32.4172 37.3046C32.2344 37.5239 31.972 37.6616 31.6876 37.6875C31.4033 37.7133 31.1203 37.6252 30.9009 37.4425Z" fill="black"/>
<path id="Vector_4" fill-rule="evenodd" clip-rule="evenodd" d="M38.7697 28C38.7697 28.2857 38.6562 28.5596 38.4543 28.7615C38.2523 28.9635 37.9784 29.077 37.6928 29.077H17.2312C16.9456 29.077 16.6717 28.9635 16.4697 28.7615C16.2678 28.5596 16.1543 28.2857 16.1543 28C16.1543 27.7144 16.2678 27.4405 16.4697 27.2385C16.6717 27.0366 16.9456 26.9231 17.2312 26.9231H37.6928C37.9784 26.9231 38.2523 27.0366 38.4543 27.2385C38.6562 27.4405 38.7697 27.7144 38.7697 28Z" fill="black"/>
</g>
</g>
</mask>
<g mask="url(#mask0_120_1077)">
<path id="Vector_5" d="M56 28C56 12.536 43.464 -3.8147e-06 28 -3.8147e-06C12.536 -3.8147e-06 0 12.536 0 28C0 43.464 12.536 56 28 56C43.464 56 56 43.464 56 28Z" fill="white"/>
</g>
</g>
</g>
</g>
<defs>
<clipPath id="clip0_120_1077">
<rect width="56" height="56" fill="white" transform="matrix(0 -1 1 0 0 56)"/>
</clipPath>
</defs>
</svg>
