<svg width="101" height="101" viewBox="0 0 101 101" fill="none" xmlns="http://www.w3.org/2000/svg">
<g id="EAR_ICON">
<rect id="Rectangle 6415" x="0.5" y="0.5" width="100" height="100" rx="49.5" fill="#333333" stroke="white"/>
<path id="Vector" d="M29.9736 34.9912H22.3235V40.0991H24.8736V68.1925H22.3235V73.3004H78.4238V68.1925H75.8738V40.0991H78.4238V34.9912H70.7738V29.8833C70.7738 29.2059 70.5051 28.5563 70.0269 28.0774C69.5487 27.5984 68.9001 27.3293 68.2238 27.3293H32.5236C31.8473 27.3293 31.1987 27.5984 30.7205 28.0774C30.2422 28.5563 29.9736 29.2059 29.9736 29.8833V34.9912ZM29.9736 40.0991H70.7738V68.1925H63.1237V50.3149H58.0237V68.1925H52.9237V50.3149H47.8237V68.1925H42.7236V50.3149H37.6236V68.1925H29.9736V40.0991ZM65.6738 32.4372V34.9912H35.0736V32.4372H65.6738Z" fill="white"/>
</g>
</svg>
