<svg width="27" height="27" viewBox="0 0 27 27" fill="none" xmlns="http://www.w3.org/2000/svg">
<g id="instagram 1" clip-path="url(#clip0_120_733)">
<g id="Group 57">
<g id="Group 56">
<path id="Path 13" d="M18.5641 -5.0618e-09L8.43737 -2.30059e-09C6.1997 0.000189335 4.05373 0.889184 2.47146 2.47146C0.889184 4.05373 0.000189345 6.1997 1.12177e-08 8.43737L2.46814e-08 18.5641C0.00056799 20.8015 0.88973 22.9471 2.47196 24.529C4.05419 26.111 6.19994 26.9998 8.43737 27L18.5641 27C20.8012 26.9994 22.9466 26.1105 24.5285 24.5285C26.1105 22.9466 26.9994 20.8012 27 18.5641L27 8.43737C26.9998 6.19994 26.111 4.05419 24.529 2.47196C22.9471 0.88973 20.8015 0.000567956 18.5641 -5.0618e-09V-5.0618e-09ZM24.4689 18.5641C24.4668 20.1295 23.844 21.6302 22.7371 22.7371C21.6302 23.844 20.1295 24.4668 18.5641 24.4689L8.43737 24.4689C6.87171 24.4672 5.37064 23.8446 4.26342 22.7376C3.15619 21.6306 2.53322 20.1297 2.53114 18.5641L2.53114 8.43737C2.53284 6.87146 3.15565 5.37018 4.26291 4.26291C5.37018 3.15565 6.87146 2.53284 8.43737 2.53114L18.5641 2.53114C20.13 2.53284 21.6313 3.15565 22.7385 4.26291C23.8458 5.37018 24.4686 6.87146 24.4703 8.43737L24.4689 18.5641Z" fill="white"/>
</g>
</g>
<g id="Group 59">
<g id="Group 58">
<path id="Path 14" d="M13.5002 6.75C12.1651 6.75 10.86 7.1459 9.74999 7.88761C8.63992 8.62933 7.77474 9.68356 7.26383 10.917C6.75293 12.1504 6.61925 13.5077 6.8797 14.8171C7.14016 16.1265 7.78305 17.3292 8.72708 18.2733C9.67111 19.2173 10.8739 19.8602 12.1833 20.1207C13.4927 20.3811 14.8499 20.2474 16.0834 19.7365C17.3168 19.2256 18.371 18.3604 19.1127 17.2504C19.8545 16.1403 20.2504 14.8352 20.2504 13.5002C20.2504 12.6137 20.0758 11.736 19.7365 10.917C19.3973 10.098 18.9001 9.35389 18.2733 8.72708C17.6465 8.10027 16.9023 7.60306 16.0834 7.26383C15.2644 6.9246 14.3866 6.75 13.5002 6.75ZM13.5002 17.7185C12.6657 17.7185 11.85 17.4711 11.1562 17.0075C10.4624 16.5439 9.92162 15.885 9.6023 15.114C9.28297 14.3431 9.19941 13.4948 9.36221 12.6764C9.525 11.858 9.92683 11.1062 10.5169 10.5162C11.1069 9.92611 11.8587 9.52429 12.6771 9.3615C13.4955 9.1987 14.3438 9.28225 15.1147 9.60158C15.8857 9.9209 16.5446 10.4617 17.0082 11.1555C17.4718 11.8493 17.7192 12.665 17.7192 13.4995C17.7177 14.618 17.2727 15.6902 16.4818 16.4811C15.6909 17.272 14.6187 17.717 13.5002 17.7185Z" fill="white"/>
</g>
</g>
<g id="Group 61">
<g id="Group 60">
<path id="Ellipse 5" d="M20.7551 7.14401C21.252 7.14401 21.6548 6.74123 21.6548 6.24437C21.6548 5.74751 21.252 5.34473 20.7551 5.34473C20.2583 5.34473 19.8555 5.74751 19.8555 6.24437C19.8555 6.74123 20.2583 7.14401 20.7551 7.14401Z" fill="white"/>
</g>
</g>
</g>
<defs>
<clipPath id="clip0_120_733">
<rect width="27" height="27" fill="white"/>
</clipPath>
</defs>
</svg>
