<svg width="43" height="43" viewBox="0 0 43 43" fill="none" xmlns="http://www.w3.org/2000/svg">
<path d="M38.9688 1.00797H4.03125C3.23854 0.9999 2.47501 1.30663 1.90819 1.86086C1.34137 2.41508 1.01756 3.17153 1.00781 3.96422V39.0428C1.01932 39.8343 1.3439 40.5891 1.91053 41.1418C2.47716 41.6946 3.23969 42.0004 4.03125 41.9923H38.9688C39.7615 41.9986 40.5245 41.6909 41.0911 41.1363C41.6576 40.5817 41.9816 39.8254 41.9922 39.0327V3.95414C41.9781 3.16378 41.6525 2.41093 41.0864 1.85925C40.5202 1.30757 39.7592 1.00164 38.9688 1.00797Z" fill="#0076B2"/>
<path d="M7.07555 16.3701H13.1594V35.9452H7.07555V16.3701ZM10.1191 6.62793C10.8169 6.62793 11.499 6.83489 12.0792 7.22263C12.6593 7.61037 13.1114 8.16146 13.3783 8.80619C13.6452 9.45093 13.7148 10.1603 13.5785 10.8447C13.4421 11.529 13.1058 12.1575 12.6122 12.6507C12.1185 13.1438 11.4897 13.4795 10.8052 13.6153C10.1208 13.751 9.41144 13.6806 8.76696 13.4131C8.12248 13.1457 7.57181 12.693 7.18463 12.1125C6.79744 11.532 6.59113 10.8497 6.5918 10.1519C6.59269 9.21699 6.96471 8.32066 7.62612 7.65988C8.28753 6.9991 9.18421 6.62793 10.1191 6.62793ZM16.9756 16.3701H22.8075V19.0576H22.8881C23.7011 17.519 25.6831 15.8964 28.6427 15.8964C34.8038 15.883 35.946 19.9378 35.946 25.1952V35.9452H29.8622V26.4214C29.8622 24.1538 29.8219 21.2345 26.701 21.2345C23.5802 21.2345 23.0494 23.707 23.0494 26.2736V35.9452H16.9756V16.3701Z" fill="white"/>
</svg>
