<svg width="28" height="25" viewBox="0 0 28 25" fill="none" xmlns="http://www.w3.org/2000/svg">
<g id="linkedin 1" clip-path="url(#clip0_120_734)">
<g id="linked-in-logo-of-two-letters">
<g id="Group 67">
<path id="Path 155" d="M0.909069 24.9998L4.54931 24.9998C4.79041 24.9998 5.02163 24.9062 5.19211 24.7396C5.3626 24.5729 5.45837 24.3469 5.45837 24.1113L5.45837 8.55944C5.45837 8.32378 5.3626 8.09778 5.19211 7.93115C5.02163 7.76451 4.79041 7.6709 4.54931 7.6709L0.909069 7.6709C0.667969 7.6709 0.436744 7.76451 0.26626 7.93115C0.0957766 8.09778 8.68028e-10 8.32378 1.18134e-09 8.55944L2.18579e-08 24.1113C2.21712e-08 24.3469 0.0957766 24.5729 0.26626 24.7396C0.436744 24.9062 0.667969 24.9998 0.909069 24.9998Z" fill="white"/>
<path id="Path 156" d="M0.909069 4.93682L4.54931 4.93682C4.79041 4.93682 5.02163 4.8432 5.19211 4.67657C5.3626 4.50993 5.45837 4.28393 5.45837 4.04827L5.45837 0.888549C5.45837 0.652891 5.3626 0.426886 5.19211 0.26025C5.02163 0.0936148 4.79041 -1.30619e-09 4.54931 -1.24044e-09L0.909069 -2.47873e-10C0.667969 -1.82133e-10 0.436744 0.0936148 0.26626 0.26025C0.0957766 0.426886 8.68037e-10 0.652891 1.18135e-09 0.888549L5.38228e-09 4.04827C5.6956e-09 4.28393 0.0957766 4.50993 0.26626 4.67657C0.436744 4.8432 0.667969 4.93682 0.909069 4.93682Z" fill="white"/>
<path id="Path 157" d="M26.632 9.47499C26.0326 8.75267 25.2528 8.19358 24.3678 7.8517C23.324 7.41854 22.1995 7.20189 21.0655 7.21544C19.8882 7.20189 18.7221 7.43974 17.6486 7.91239C16.5751 8.38504 15.6201 9.08109 14.8504 9.95191C14.5107 10.3149 14.2668 10.2357 14.2668 9.74443L14.2668 8.55988C14.2668 8.32422 14.171 8.09822 14.0005 7.93159C13.83 7.76495 13.5988 7.67133 13.3577 7.67133L10.1063 7.67133C9.86523 7.67133 9.63401 7.76495 9.46352 7.93159C9.29304 8.09822 9.19727 8.32422 9.19727 8.55988L9.19727 24.1117C9.19727 24.3474 9.29304 24.5734 9.46352 24.74C9.63401 24.9066 9.86523 25.0003 10.1063 25.0003L13.7466 25.0003C13.9877 25.0003 14.2189 24.9066 14.3894 24.74C14.5599 24.5734 14.6556 24.3474 14.6556 24.1117L14.6556 18.7035C14.6556 16.4502 14.7949 14.9059 15.0734 14.0704C15.3412 13.2485 15.8854 12.5392 16.6175 12.0576C17.3653 11.552 18.2556 11.2865 19.1648 11.298C19.8372 11.2793 20.499 11.465 21.0587 11.8297C21.5914 12.1945 21.9899 12.717 22.1954 13.3202C22.4286 13.9594 22.5452 15.3677 22.5452 17.545L22.5452 24.1117C22.5452 24.3474 22.6409 24.5734 22.8114 24.74C22.9819 24.9066 23.2131 25.0003 23.4542 25.0003L27.0945 25.0003C27.3356 25.0003 27.5668 24.9066 27.7373 24.74C27.9078 24.5734 28.0036 24.3474 28.0036 24.1117L28.0036 15.3042C28.036 14.1009 27.935 12.8978 27.7024 11.7157C27.5122 10.9031 27.1474 10.1393 26.632 9.47499Z" fill="white"/>
</g>
</g>
</g>
<defs>
<clipPath id="clip0_120_734">
<rect width="28" height="25" fill="white"/>
</clipPath>
</defs>
</svg>
