<svg width="101" height="101" viewBox="0 0 101 101" fill="none" xmlns="http://www.w3.org/2000/svg">
<g id="EAR_ICON">
<rect id="Rectangle 6415" x="0.5" y="0.5" width="100" height="100" rx="49.5" fill="#333333" stroke="white"/>
<g id="Group">
<path id="Vector" fill-rule="evenodd" clip-rule="evenodd" d="M50.5011 54.1431C53.1722 54.1431 55.7339 53.082 57.6227 51.1932C59.5115 49.3045 60.5725 46.7428 60.5725 44.0717C60.5725 41.4006 59.5115 38.8389 57.6227 36.9501C55.7339 35.0613 53.1722 34.0002 50.5011 34.0002C47.83 34.0002 45.2683 35.0613 43.3795 36.9501C41.4908 38.8389 40.4297 41.4006 40.4297 44.0717C40.4297 46.7428 41.4908 49.3045 43.3795 51.1932C45.2683 53.082 47.83 54.1431 50.5011 54.1431ZM50.5011 37.3574C52.2819 37.3574 53.9897 38.0648 55.2488 39.324C56.508 40.5831 57.2154 42.2909 57.2154 44.0717C57.2154 45.8524 56.508 47.5602 55.2488 48.8194C53.9897 50.0786 52.2819 50.786 50.5011 50.786C48.7204 50.786 47.0126 50.0786 45.7534 48.8194C44.4942 47.5602 43.7868 45.8524 43.7868 44.0717C43.7868 42.2909 44.4942 40.5831 45.7534 39.324C47.0126 38.0648 48.7204 37.3574 50.5011 37.3574Z" fill="white"/>
<path id="Vector_2" fill-rule="evenodd" clip-rule="evenodd" d="M27 44.4845C27 57.9197 41.1772 81.0001 50.5 81.0001C59.8228 81.0001 74 57.9197 74 44.4845C74 31.2842 63.4854 20.5715 50.5 20.5715C37.5146 20.5715 27 31.2842 27 44.4845ZM70.6429 44.4845C70.6429 56.3016 57.5366 77.643 50.5 77.643C43.4634 77.643 30.3571 56.3016 30.3571 44.4845C30.3571 33.1272 39.3811 23.9287 50.5 23.9287C61.6189 23.9287 70.6429 33.1272 70.6429 44.4845Z" fill="white"/>
</g>
</g>
</svg>
