<svg width="31" height="23" viewBox="0 0 31 23" fill="none" xmlns="http://www.w3.org/2000/svg">
<path id="Twittter" d="M31 2.72117C29.8339 3.18599 28.6005 3.495 27.3378 3.6387C28.6683 2.91793 29.663 1.77658 30.1335 0.430883C28.8877 1.10546 27.5247 1.58049 26.1035 1.83541C25.232 0.986086 24.101 0.395664 22.8574 0.140823C21.6138 -0.114018 20.3149 -0.0215013 19.1296 0.406356C17.9443 0.834213 16.9273 1.57764 16.2106 2.54008C15.4939 3.50252 15.1108 4.6395 15.1108 5.80335C15.1057 6.24809 15.1549 6.69196 15.2577 7.12671C12.7294 7.0135 10.2558 6.41435 7.99845 5.36841C5.74112 4.32246 3.75095 2.85329 2.15803 1.05692C1.34054 2.33356 1.08746 3.84696 1.45045 5.2882C1.81343 6.72944 2.76511 7.98985 4.11123 8.81213C3.10416 8.78816 2.11821 8.54317 1.23669 8.09788L1.23669 8.1614C1.23847 9.50146 1.74577 10.8001 2.67322 11.8386C3.60066 12.8771 4.89161 13.5922 6.32877 13.8635C5.78503 13.9944 5.22464 14.0587 4.66233 14.0547C4.25845 14.0614 3.85497 14.0283 3.45887 13.9559C3.87026 15.1078 4.66263 16.1148 5.72685 16.8383C6.79107 17.5618 8.07478 17.9662 9.40118 17.9959C7.15182 19.6031 4.3773 20.4754 1.52113 20.4732C1.01279 20.477 0.504708 20.4511 2.71164e-08 20.3956C2.90611 22.1056 6.29255 23.0102 9.74977 22.9999C21.445 22.9999 27.8364 14.1535 27.8364 6.48444C27.8364 6.22824 27.8263 5.98051 27.8132 5.73419C29.0673 4.91518 30.1472 3.89413 31 2.72117Z" fill="white"/>
</svg>
